<?xml version="1.0" encoding="iso-8859-1"?>
<!-- Generator: Adobe Illustrator 19.0.0, SVG Export Plug-In . SVG Version: 6.00 Build 0)  -->
<svg version="1.1" id="Capa_1" xmlns="http://www.w3.org/2000/svg" xmlns:xlink="http://www.w3.org/1999/xlink" x="0px" y="0px"
	 viewBox="0 0 512.003 512.003" style="enable-background:new 0 0 512.003 512.003;" xml:space="preserve">
<g>
	<g>
		<path fill="#fc4b4b"  d="M512.003,75.508H512c0-36.905-26.621-67.69-61.664-74.212c-0.414-0.099-0.834-0.181-1.266-0.227
			c-4.093-0.689-8.29-1.067-12.576-1.067H75.506c-4.286,0-8.483,0.378-12.576,1.067c-0.432,0.046-0.852,0.128-1.266,0.227
			C26.621,7.818,0,38.603,0,75.508v248.987c0,36.903,26.618,67.687,61.658,74.212c0.422,0.101,0.85,0.185,1.291,0.231
			c4.087,0.687,8.278,1.064,12.557,1.064h277.042v26.865l-9.174-7.397c-11.653-9.396-28.422-8.5-39.006,2.084
			c-10.78,10.78-11.531,27.727-1.747,39.418l39.71,47.448c1.978,2.363,4.816,3.582,7.674,3.582c2.264,0,4.541-0.765,6.413-2.331
			c4.235-3.545,4.795-9.852,1.251-14.087l-39.71-47.448c-3.088-3.689-2.851-9.037,0.552-12.439c3.34-3.34,8.632-3.624,12.31-0.658
			l25.451,20.523c2.998,2.417,7.118,2.897,10.592,1.237c3.474-1.661,5.686-5.171,5.686-9.021V315.75
			c0-4.021,3.269-7.355,7.286-7.431c2.518-0.073,4.3,1.312,5.129,2.125c1.556,1.527,2.448,3.627,2.448,5.763v64.815v11.21v22.15
			c0,5.522,4.477,10,10,10s10-4.478,10-10v-22.15v-11.21c0-4.098,3.334-7.432,7.432-7.432c4.098,0,7.432,3.334,7.432,7.432v33.36
			c0,5.522,4.477,10,10,10s10-4.478,10-10v-33.36c0-4.098,3.334-7.432,7.432-7.432c4.098,0,7.432,3.334,7.432,7.432v35.389
			c0,5.522,4.477,10,10,10s10-4.478,10-10v-35.389c0-4.021,3.269-7.355,7.286-7.431c2.513-0.062,4.3,1.31,5.128,2.124
			c1.556,1.527,2.448,3.627,2.448,5.763v120.523c0,5.522,4.477,10,10,10s10-4.478,10-10V381.479c0-7.47-3.076-14.773-8.439-20.037
			c-0.26-0.255-0.527-0.5-0.795-0.743c6.06-11.036,9.234-23.362,9.234-36.204V75.508z M54,375.665c-19.956-8.42-34-28.185-34-51.17
			V75.508c0-22.984,14.044-42.749,34-51.168V375.665z M438,356.221c-2.062,0.977-3.985,2.2-5.726,3.637
			c-4.743-3.913-10.818-6.266-17.432-6.266c-2.576,0-5.066,0.365-7.432,1.031v-38.415c0-7.47-3.076-14.772-8.438-20.036
			c-5.295-5.197-12.224-7.967-19.513-7.848c-14.839,0.278-26.911,12.582-26.911,27.427v64.251H309V248.101h129V356.221z
			 M438,228.101H299c-5.523,0-10,4.477-10,10v141.901H75.506c-0.505,0-1.004-0.025-1.506-0.038V20.04
			c0.502-0.013,1.001-0.038,1.506-0.038h360.988c0.505,0,1.004,0.025,1.506,0.038V228.101z M492,324.495
			c0,10.426-2.842,20.387-8.246,29.115c-6.272,0.185-12.034,2.517-16.583,6.277c-2.678-2.217-5.784-3.933-9.171-5.01V226.489
			c4.199,2.239,8.987,3.513,14.068,3.513c7.646,0,14.628-2.879,19.932-7.605V324.495z M462.068,200.002c0-5.514,4.486-10,10-10
			c5.514,0,10,4.486,10,10c0,5.514-4.486,10-10,10C466.554,210.002,462.068,205.516,462.068,200.002z M492,177.607
			c-5.304-4.725-12.287-7.605-19.932-7.605c-5.081,0-9.869,1.274-14.068,3.513V24.34c19.956,8.419,34,28.183,34,51.168V177.607z"/>
	</g>
</g>
<g>
	<g>
		<path fill="#fc4b4b"  d="M162,213.002h-50c-5.523,0-10,4.477-10,10v50c0,5.522,4.477,10,10,10h50c5.523,0,10-4.478,10-10v-50
			C172,217.479,167.523,213.002,162,213.002z M152,263.002h-30v-30h30V263.002z"/>
	</g>
</g>
<g>
	<g>
		<path fill="#fc4b4b"  d="M248.667,213.002h-50c-5.523,0-10,4.477-10,10v50c0,5.522,4.477,10,10,10h50c5.523,0,10-4.478,10-10v-50
			C258.667,217.479,254.189,213.002,248.667,213.002z M238.667,263.002h-30v-30h30V263.002z"/>
	</g>
</g>
<g>
	<g>
		<path fill="#fc4b4b"  d="M162,296.335h-50c-5.523,0-10,4.478-10,10v50c0,5.522,4.477,10,10,10h50c5.523,0,10-4.478,10-10v-50
			C172,300.813,167.523,296.335,162,296.335z M152,346.335h-30v-30h30V346.335z"/>
	</g>
</g>
<g>
	<g>
		<path fill="#fc4b4b"  d="M248.667,296.335h-50c-5.523,0-10,4.478-10,10v50c0,5.522,4.477,10,10,10h50c5.523,0,10-4.478,10-10v-50
			C258.667,300.813,254.189,296.335,248.667,296.335z M238.667,346.335h-30v-30h30V346.335z"/>
	</g>
</g>
<g>
	<g>
		<path fill="#fc4b4b"  d="M165,36.668c-43.561,0-79,35.439-79,79c0,29.093,15.919,55.751,41.546,69.572c1.51,0.814,3.135,1.201,4.738,1.201
			c3.558,0,7.003-1.904,8.811-5.255c2.622-4.861,0.806-10.927-4.055-13.549C117.894,157.312,106,137.398,106,115.669
			c0-32.533,26.467-59,59-59s59,26.467,59,59c0,21.728-11.893,41.641-31.036,51.967c-4.861,2.622-6.676,8.688-4.054,13.549
			c2.622,4.861,8.689,6.676,13.549,4.053c25.624-13.822,41.541-40.48,41.541-69.57C244,72.107,208.561,36.668,165,36.668z"/>
	</g>
</g>
<g>
	<g>
		<path fill="#fc4b4b"  d="M422.689,92.989c-1.581-5.292-7.151-8.299-12.445-6.718c-5.292,1.582-8.299,7.153-6.718,12.445
			c6.225,20.832,0.552,43.314-14.806,58.672c-23.004,23.005-60.435,23.004-83.438,0c-23.004-23.004-23.004-60.435,0-83.438
			c15.361-15.362,37.847-21.034,58.685-14.804c5.292,1.585,10.863-1.424,12.446-6.716c1.582-5.291-1.425-10.863-6.716-12.446
			c-27.888-8.339-57.99-0.744-78.557,19.823c-30.802,30.802-30.802,80.92,0,111.723c15.4,15.401,35.63,23.102,55.86,23.102
			c20.23,0,40.46-7.701,55.862-23.102C423.424,150.968,431.021,120.872,422.689,92.989z"/>
	</g>
</g>
<g>
	<g>
		<path fill="#fc4b4b"  d="M195.071,85.596c-3.905-3.904-10.237-3.904-14.143,0l-23,23c-3.905,3.905-3.905,10.237,0,14.143
			c1.953,1.952,4.512,2.929,7.071,2.929c2.559,0,5.12-0.977,7.072-2.929l23-23C198.976,95.835,198.976,89.503,195.071,85.596z"/>
	</g>
</g>
<g>
	<g>
		<path fill="#fc4b4b"  d="M377.071,85.596c-3.905-3.904-10.237-3.904-14.142,0l-23,23c-3.905,3.905-3.905,10.237,0,14.143
			c1.953,1.952,4.512,2.929,7.071,2.929s5.119-0.977,7.071-2.929l23-23C380.976,95.835,380.976,89.503,377.071,85.596z"/>
	</g>
</g>
<g>
	<g>
		<path fill="#fc4b4b"  d="M402.86,59.812c-1.86-1.87-4.44-2.93-7.07-2.93s-5.21,1.06-7.07,2.93c-1.86,1.86-2.93,4.44-2.93,7.07s1.07,5.2,2.93,7.07
			c1.86,1.86,4.44,2.93,7.07,2.93s5.21-1.07,7.07-2.93c1.86-1.87,2.93-4.44,2.93-7.07C405.79,64.242,404.72,61.672,402.86,59.812z"
			/>
	</g>
</g>
<g>
	<g>
		<path fill="#fc4b4b"  d="M172.07,180.232c-1.86-1.86-4.44-2.93-7.07-2.93s-5.21,1.07-7.07,2.93s-2.93,4.44-2.93,7.07s1.07,5.21,2.93,7.07
			s4.44,2.93,7.07,2.93s5.21-1.07,7.07-2.93s2.93-4.44,2.93-7.07S173.93,182.091,172.07,180.232z"/>
	</g>
</g>
<g>
</g>
<g>
</g>
<g>
</g>
<g>
</g>
<g>
</g>
<g>
</g>
<g>
</g>
<g>
</g>
<g>
</g>
<g>
</g>
<g>
</g>
<g>
</g>
<g>
</g>
<g>
</g>
<g>
</g>
</svg>
