<?xml version="1.0" encoding="iso-8859-1"?>
<!-- Generator: Adobe Illustrator 19.0.0, SVG Export Plug-In . SVG Version: 6.00 Build 0)  -->
<svg version="1.1" id="Capa_1" xmlns="http://www.w3.org/2000/svg" xmlns:xlink="http://www.w3.org/1999/xlink" x="0px" y="0px"
	 viewBox="0 0 512 512" style="enable-background:new 0 0 512 512;" xml:space="preserve">
<g>
	<g>
		<path fill="#b57ad3"  d="M56,266c-5.52,0-10,4.48-10,10c0,5.52,4.48,10,10,10s10-4.48,10-10C66,270.48,61.52,266,56,266z"/>
	</g>
</g>
<g>
	<g>
		<path fill="#b57ad3"  d="M276.208,256.066L440.285,95.017c1.893-1.858,2.97-4.392,2.995-7.044c0.024-2.652-1.006-5.206-2.864-7.098
			c-23.113-23.543-51.744-43.484-82.798-57.666C324.372,8.025,289.232,0,256,0c-33.723,0-66.809,6.939-98.339,20.625
			c-30.296,13.15-57.696,31.856-81.438,55.598c-23.742,23.742-42.448,51.142-55.598,81.439C6.939,189.191,0,222.277,0,256
			s6.939,66.809,20.625,98.338c13.149,30.297,31.855,57.697,55.598,81.439c23.742,23.742,51.143,42.448,81.438,55.598
			C189.191,505.061,222.277,512,256,512c32.817,0,67.58-7.865,100.531-22.745c30.737-13.88,59.179-33.408,82.249-56.473
			c1.876-1.875,2.93-4.419,2.93-7.071c0-2.652-1.054-5.196-2.929-7.072L276.208,256.066z M256,492C128.075,492,20,383.925,20,256
			S128.075,20,256,20c56.534,0,118.102,25.816,162.989,67.895L254.995,248.863c-1.904,1.869-2.982,4.422-2.995,7.09
			c-0.013,2.668,1.042,5.23,2.929,7.118L417.42,425.562C372.668,466.737,311.699,492,256,492z"/>
	</g>
</g>
<g>
	<g>
		<path fill="#b57ad3"  d="M199.328,437.377c-58.596-18.35-104.955-64.163-124.012-122.55c-1.715-5.25-7.359-8.116-12.609-6.403
			c-5.251,1.713-8.117,7.359-6.404,12.609c21.059,64.523,72.293,115.151,137.049,135.43c0.995,0.312,2.001,0.459,2.991,0.459
			c4.255,0,8.201-2.738,9.54-7.014C207.533,444.637,204.599,439.027,199.328,437.377z"/>
	</g>
</g>
<g>
	<g>
		<path fill="#b57ad3"  d="M276,86c-16.542,0-30,13.458-30,30s13.458,30,30,30s30-13.458,30-30S292.542,86,276,86z M276,126c-5.514,0-10-4.486-10-10
			s4.486-10,10-10c5.514,0,10,4.486,10,10S281.514,126,276,126z"/>
	</g>
</g>
<g>
	<g>
		<path fill="#b57ad3"  d="M472,216c-22.056,0-40,17.944-40,40c0,22.056,17.944,40,40,40c22.056,0,40-17.944,40-40C512,233.944,494.056,216,472,216z
			 M472,276c-11.028,0-20-8.972-20-20s8.972-20,20-20s20,8.972,20,20S483.028,276,472,276z"/>
	</g>
</g>
<g>
	<g>
		<path fill="#b57ad3"  d="M372,216c-22.056,0-40,17.944-40,40c0,22.056,17.944,40,40,40c22.056,0,40-17.944,40-40C412,233.944,394.056,216,372,216z
			 M372,276c-11.028,0-20-8.972-20-20s8.972-20,20-20s20,8.972,20,20S383.028,276,372,276z"/>
	</g>
</g>
<g>
</g>
<g>
</g>
<g>
</g>
<g>
</g>
<g>
</g>
<g>
</g>
<g>
</g>
<g>
</g>
<g>
</g>
<g>
</g>
<g>
</g>
<g>
</g>
<g>
</g>
<g>
</g>
<g>
</g>
</svg>
