<?xml version="1.0" encoding="iso-8859-1"?>
<!-- Generator: Adobe Illustrator 19.0.0, SVG Export Plug-In . SVG Version: 6.00 Build 0)  -->
<svg version="1.1" id="Capa_1" xmlns="http://www.w3.org/2000/svg" xmlns:xlink="http://www.w3.org/1999/xlink" x="0px" y="0px"
	 viewBox="0 0 512 512" style="enable-background:new 0 0 512 512;" xml:space="preserve">
<g>
	<g>
		<path fill="#98D500"  d="M101,293.81c-5.51,0-10,4.49-10,10c0,5.52,4.49,10,10,10s10-4.48,10-10C111,298.3,106.51,293.81,101,293.81z"/>
	</g>
</g>
<g>
	<g>
		<path fill="#98D500"  d="M420.631,299.4c-1.661-3.431-5.192-5.65-9.011-5.65c-1.511,0-2.971,0.34-4.34,1c-4.971,2.4-7.061,8.39-4.66,13.35
			c1.66,3.44,5.199,5.66,9.01,5.66c1.51,0,2.97-0.34,4.34-1c2.41-1.16,4.22-3.19,5.1-5.72
			C421.951,304.52,421.791,301.81,420.631,299.4z"/>
	</g>
</g>
<g>
	<g>
		<path fill="#98D500"  d="M411.655,203.467c-12.091,0-23.69,2.15-34.434,6.087l-35.791-74.087h14.547c5.522,0,10-4.477,10-10s-4.478-10-10-10
			h-51.885c-5.522,0-10,4.477-10,10s4.478,10,10,10h15.126l11.29,23.37H179.077l-12.848-23.156l16.753,2.905
			c0.579,0.1,1.153,0.148,1.721,0.148c4.773,0,8.998-3.43,9.841-8.293c0.944-5.441-2.702-10.618-8.144-11.562l-62.771-10.885
			c-5.453-0.946-10.619,2.703-11.562,8.145c-0.944,5.441,2.702,10.618,8.144,11.562l20.718,3.593l18.677,33.691l-22.794,45.343
			c-11.309-4.427-23.609-6.861-36.467-6.861C45.015,203.467,0,248.481,0,303.811c0,55.331,45.015,100.345,100.345,100.345
			c51.957,0,94.815-39.693,99.849-90.347H248c3.682,0,6.9-2.006,8.635-4.98c0.007,0.008,61.581-89.899,85.812-125.28l16.78,34.735
			c-28.724,17.672-47.918,49.398-47.918,85.526c0,55.331,45.015,100.345,100.346,100.345C466.985,404.155,512,359.14,512,303.81
			C512,248.481,466.985,203.467,411.655,203.467z M100.345,384.156C56.043,384.156,20,348.114,20,303.811
			c0-44.302,36.043-80.345,80.345-80.345c9.631,0,18.87,1.707,27.435,4.828l-17.738,35.285c-1.2,2.39-1.399,5.1-0.56,7.64
			c0.84,2.53,2.609,4.59,5,5.79c1.41,0.71,2.92,1.07,4.489,1.07c3.801,0,7.23-2.11,8.94-5.51l17.657-35.125
			c18.579,12.7,31.559,32.99,34.477,56.366H141c-5.51,0-10,4.49-10,10c0,5.52,4.49,10,10,10h39.046
			C175.105,353.408,141.26,384.156,100.345,384.156z M200.193,293.81c-3.099-31.172-20.522-58.191-45.576-74.364l16.73-33.281
			l59.674,107.645H200.193z M248.895,284.801l-58.743-105.964h131.286L248.895,284.801z M411.655,384.156
			c-44.303,0-80.346-36.042-80.346-80.345c0-28.209,14.625-53.051,36.679-67.39l17.231,35.668c1.66,3.43,5.2,5.65,9.01,5.65
			c1.521,0,2.98-0.34,4.351-1c4.96-2.4,7.05-8.39,4.649-13.35l-17.243-35.694c8.067-2.728,16.693-4.23,25.669-4.23
			c44.302,0,80.345,36.042,80.345,80.345C492,348.114,455.957,384.156,411.655,384.156z"/>
	</g>
</g>
<g>
</g>
<g>
</g>
<g>
</g>
<g>
</g>
<g>
</g>
<g>
</g>
<g>
</g>
<g>
</g>
<g>
</g>
<g>
</g>
<g>
</g>
<g>
</g>
<g>
</g>
<g>
</g>
<g>
</g>
</svg>
