<?xml version="1.0" encoding="iso-8859-1"?>
<!-- Generator: Adobe Illustrator 19.0.0, SVG Export Plug-In . SVG Version: 6.00 Build 0)  -->
<svg version="1.1" id="Layer_1" xmlns="http://www.w3.org/2000/svg" xmlns:xlink="http://www.w3.org/1999/xlink" x="0px" y="0px"
	 viewBox="0 0 512 512" style="enable-background:new 0 0 512 512;" xml:space="preserve">
<g>
	<g>
		<path fill="#fdbf37"  d="M469.4,17.821h-30.991c-23.489,0-42.6,19.11-42.6,42.6v45.641v299.002v4.714c0,2.274,0.649,4.501,1.87,6.419
			l46.146,72.453c2.194,3.445,5.995,5.53,10.079,5.53s7.885-2.085,10.079-5.53l46.146-72.453c1.221-1.918,1.87-4.145,1.87-6.419
			v-4.714V106.061V60.42C512,36.931,492.89,17.821,469.4,17.821z M419.708,60.42c0-10.312,8.389-18.701,18.701-18.701H469.4
			c10.312,0,18.701,8.389,18.701,18.701v33.692h-68.394V60.42z M453.905,459.988l-27.37-42.975h54.742L453.905,459.988z
			 M488.102,393.114h-22.248V185.436c0-6.599-5.35-11.949-11.949-11.949c-6.598,0-11.949,5.35-11.949,11.949v207.679h-22.248V118.01
			h68.394V393.114z"/>
	</g>
</g>
<g>
	<g>
		<path fill="#fdbf37"  d="M465.621,143.703c-0.154-0.765-0.381-1.518-0.68-2.234c-0.299-0.729-0.669-1.422-1.099-2.067
			c-0.442-0.657-0.944-1.267-1.494-1.816c-0.55-0.55-1.159-1.052-1.816-1.482c-0.645-0.43-1.338-0.801-2.055-1.099
			c-0.729-0.299-1.47-0.526-2.234-0.681c-1.541-0.311-3.131-0.311-4.672,0c-0.765,0.155-1.519,0.382-2.234,0.681
			c-0.716,0.299-1.41,0.669-2.067,1.099c-0.644,0.43-1.267,0.932-1.816,1.482c-0.55,0.55-1.052,1.159-1.482,1.816
			c-0.429,0.645-0.801,1.338-1.099,2.067c-0.299,0.717-0.525,1.47-0.681,2.234c-0.155,0.765-0.238,1.553-0.238,2.33
			c0,0.789,0.082,1.565,0.238,2.342c0.157,0.765,0.382,1.506,0.681,2.234c0.299,0.717,0.67,1.41,1.099,2.055
			c0.43,0.657,0.932,1.267,1.482,1.816c0.55,0.562,1.171,1.052,1.816,1.494c0.658,0.43,1.351,0.801,2.067,1.099
			c0.716,0.299,1.47,0.526,2.234,0.681c0.765,0.155,1.553,0.227,2.33,0.227c3.155,0,6.237-1.267,8.447-3.501
			c0.55-0.55,1.052-1.159,1.494-1.816c0.43-0.645,0.801-1.338,1.099-2.055c0.299-0.729,0.526-1.47,0.681-2.234
			c0.155-0.777,0.227-1.553,0.227-2.342C465.848,145.256,465.775,144.468,465.621,143.703z"/>
	</g>
</g>
<g>
	<g>
		<path fill="#fdbf37"  d="M358.026,24.924H11.949C5.351,24.924,0,30.274,0,36.874v438.254c0,6.599,5.351,11.949,11.949,11.949h346.077
			c6.598,0,11.949-5.35,11.949-11.949V36.874C369.975,30.274,364.624,24.924,358.026,24.924z M346.077,463.177H23.898V48.823
			h322.179V463.177z"/>
	</g>
</g>
<g>
	<g>
		<path fill="#fdbf37"  d="M291.473,79.278H78.503c-6.598,0-11.949,5.35-11.949,11.949v56.762c0,6.601,5.351,11.95,11.949,11.95h212.97
			c6.598,0,11.949-5.35,11.949-11.949V91.227C303.422,84.628,298.071,79.278,291.473,79.278z M279.524,136.04H90.452v-32.863
			h189.072V136.04z"/>
	</g>
</g>
<g>
	<g>
		<path fill="#fdbf37"  d="M291.473,319.323H78.503c-6.598,0-11.949,5.35-11.949,11.949v89.501c0,6.599,5.351,11.949,11.949,11.949h212.97
			c6.598,0,11.949-5.35,11.949-11.949v-89.501C303.422,324.672,298.071,319.323,291.473,319.323z M279.524,408.824H90.452v-65.603
			h189.072V408.824z"/>
	</g>
</g>
<g>
	<g>
		<path fill="#fdbf37"  d="M254.29,198.69H76.253c-6.598,0-11.949,5.35-11.949,11.949c0,6.599,5.351,11.949,11.949,11.949H254.29
			c6.598,0,11.949-5.35,11.949-11.949C266.239,204.04,260.888,198.69,254.29,198.69z"/>
	</g>
</g>
<g>
	<g>
		<path fill="#fdbf37"  d="M305.432,208.299c-0.155-0.753-0.382-1.506-0.681-2.234c-0.299-0.717-0.669-1.41-1.099-2.055
			c-0.43-0.657-0.932-1.267-1.482-1.816c-0.55-0.55-1.158-1.052-1.815-1.494c-0.645-0.43-1.338-0.801-2.067-1.099
			c-0.717-0.299-1.469-0.526-2.234-0.681c-1.541-0.311-3.131-0.311-4.672,0c-0.753,0.155-1.506,0.382-2.233,0.681
			c-0.718,0.299-1.411,0.669-2.056,1.099c-0.657,0.442-1.267,0.944-1.816,1.494c-2.223,2.223-3.502,5.305-3.502,8.448
			c0,0.777,0.073,1.565,0.227,2.33c0.155,0.765,0.382,1.518,0.681,2.234c0.299,0.729,0.669,1.422,1.099,2.067
			c0.442,0.657,0.944,1.267,1.494,1.816c0.55,0.55,1.159,1.052,1.816,1.482c0.645,0.43,1.338,0.801,2.056,1.099
			c0.728,0.299,1.48,0.526,2.233,0.681c0.777,0.155,1.567,0.239,2.342,0.239c0.777,0,1.567-0.084,2.33-0.239
			c0.766-0.155,1.519-0.382,2.234-0.681c0.729-0.299,1.422-0.669,2.067-1.099c0.657-0.43,1.267-0.932,1.816-1.482
			c0.55-0.55,1.052-1.159,1.482-1.816c0.43-0.645,0.801-1.338,1.099-2.067c0.299-0.717,0.526-1.47,0.681-2.234
			c0.155-0.765,0.238-1.553,0.238-2.33S305.587,209.076,305.432,208.299z"/>
	</g>
</g>
<g>
	<g>
		<path fill="#fdbf37"  d="M293.723,263.448H115.685c-6.598,0-11.949,5.35-11.949,11.949c0,6.599,5.351,11.949,11.949,11.949h178.037
			c6.598,0,11.949-5.35,11.949-11.949C305.671,268.797,300.321,263.448,293.723,263.448z"/>
	</g>
</g>
<g>
	<g>
		<path fill="#fdbf37"  d="M87.975,273.063c-0.154-0.765-0.382-1.518-0.681-2.234c-0.299-0.729-0.669-1.422-1.099-2.067
			c-0.442-0.657-0.944-1.267-1.494-1.816c-0.55-0.55-1.159-1.052-1.816-1.482c-0.645-0.43-1.338-0.801-2.056-1.099
			c-0.728-0.299-1.48-0.526-2.233-0.681c-1.541-0.311-3.131-0.311-4.672,0c-0.766,0.155-1.519,0.382-2.234,0.681
			c-0.729,0.299-1.422,0.669-2.067,1.099c-0.657,0.43-1.267,0.932-1.816,1.482c-0.55,0.55-1.052,1.159-1.482,1.816
			c-0.43,0.645-0.801,1.338-1.099,2.067c-0.299,0.717-0.526,1.47-0.681,2.234c-0.155,0.765-0.239,1.553-0.239,2.33
			c0,3.155,1.279,6.237,3.502,8.448c2.219,2.234,5.302,3.501,8.444,3.501c0.777,0,1.567-0.072,2.343-0.227
			c0.753-0.155,1.506-0.382,2.233-0.681c0.718-0.299,1.411-0.669,2.056-1.099c0.657-0.442,1.267-0.944,1.816-1.494
			c2.223-2.223,3.501-5.293,3.501-8.448C88.201,274.617,88.129,273.828,87.975,273.063z"/>
	</g>
</g>
<g>
</g>
<g>
</g>
<g>
</g>
<g>
</g>
<g>
</g>
<g>
</g>
<g>
</g>
<g>
</g>
<g>
</g>
<g>
</g>
<g>
</g>
<g>
</g>
<g>
</g>
<g>
</g>
<g>
</g>
</svg>
