<?xml version="1.0" encoding="iso-8859-1"?>
<!-- Generator: Adobe Illustrator 19.0.0, SVG Export Plug-In . SVG Version: 6.00 Build 0)  -->
<svg version="1.1" id="Layer_1" xmlns="http://www.w3.org/2000/svg" xmlns:xlink="http://www.w3.org/1999/xlink" x="0px" y="0px"
	 viewBox="0 0 512 512" style="enable-background:new 0 0 512 512;" xml:space="preserve">
<g>
	<g>
		<path fill="#3db9e6"  d="M182.529,72.062c-5.633,0-10.199,4.566-10.199,10.199v10.861c0,5.633,4.566,10.199,10.199,10.199
			c5.633,0,10.199-4.566,10.199-10.199V82.262C192.728,76.629,188.162,72.062,182.529,72.062z"/>
	</g>
</g>
<g>
	<g>
		<path fill="#3db9e6"  d="M130.161,101.512l-4.156-10.034c-2.155-5.204-8.123-7.678-13.325-5.52c-5.205,2.155-7.676,8.122-5.52,13.325l4.155,10.034
			c1.627,3.928,5.424,6.299,9.427,6.299c1.3,0,2.623-0.25,3.899-0.779C129.846,112.682,132.317,106.715,130.161,101.512z"/>
	</g>
</g>
<g>
	<g>
		<path fill="#3db9e6"  d="M75.384,133.023l-13.111-13.111c-3.983-3.983-10.441-3.983-14.424,0s-3.983,10.441,0,14.424l13.111,13.111
			c1.992,1.992,4.602,2.987,7.212,2.987s5.221-0.997,7.212-2.987C79.367,143.464,79.367,137.006,75.384,133.023z"/>
	</g>
</g>
<g>
	<g>
		<path fill="#3db9e6"  d="M37.255,183.378l-10.034-4.156c-5.203-2.154-11.17,0.316-13.325,5.52c-2.157,5.203,0.315,11.169,5.519,13.325
			l10.034,4.156c1.276,0.529,2.598,0.779,3.899,0.779c4.002,0,7.799-2.371,9.427-6.299C44.93,191.499,42.458,185.533,37.255,183.378
			z"/>
	</g>
</g>
<g>
	<g>
		<path fill="#3db9e6"  d="M21.06,244.392H10.199C4.566,244.392,0,248.958,0,254.591s4.566,10.199,10.199,10.199H21.06
			c5.633,0,10.199-4.566,10.199-10.199S26.693,244.392,21.06,244.392z"/>
	</g>
</g>
<g>
	<g>
		<path fill="#3db9e6"  d="M42.775,312.479c-2.155-5.204-8.124-7.677-13.326-5.52l-10.034,4.156c-5.205,2.155-7.676,8.122-5.52,13.325
			c1.627,3.928,5.424,6.299,9.427,6.299c1.3,0,2.623-0.25,3.899-0.779l10.034-4.156C42.46,323.649,44.931,317.683,42.775,312.479z"
			/>
	</g>
</g>
<g>
	<g>
		<path fill="#3db9e6"  d="M75.566,361.555c-3.982-3.983-10.44-3.982-14.424,0l-7.68,7.68c-3.983,3.983-3.984,10.441,0,14.424
			c1.992,1.992,4.602,2.987,7.212,2.987c2.61,0,5.22-0.996,7.212-2.987l7.68-7.68C79.549,371.996,79.55,365.537,75.566,361.555z"/>
	</g>
</g>
<g>
	<g>
		<path fill="#3db9e6"  d="M124.523,394.629c-5.202-2.156-11.17,0.316-13.325,5.52l-7.674,18.527c-2.155,5.205,0.316,11.17,5.52,13.325
			c1.276,0.529,2.598,0.779,3.899,0.779c4.002,0,7.8-2.371,9.427-6.299l7.674-18.527
			C132.198,402.75,129.727,396.785,124.523,394.629z"/>
	</g>
</g>
<g>
	<g>
		<path fill="#3db9e6"  d="M177.363,408.678c-5.633,0-10.199,4.566-10.199,10.199v10.861c0,5.633,4.566,10.199,10.199,10.199
			c5.633,0,10.199-4.566,10.199-10.199v-10.861C187.562,413.244,182.996,408.678,177.363,408.678z"/>
	</g>
</g>
<g>
	<g>
		<path fill="#3db9e6"  d="M314.281,122.838c-3.984-3.983-10.442-3.983-14.425,0l-9.755,9.755c-3.983,3.983-3.983,10.441,0,14.424
			c1.994,1.992,4.603,2.987,7.214,2.987c2.611,0,5.221-0.996,7.212-2.987l9.753-9.755
			C318.264,133.279,318.264,126.821,314.281,122.838z"/>
	</g>
</g>
<g>
	<g>
		<path fill="#3db9e6"  d="M252.38,85.958c-5.203-2.156-11.17,0.316-13.325,5.52l-4.156,10.034c-2.157,5.203,0.314,11.169,5.519,13.325
			c1.276,0.529,2.598,0.779,3.899,0.779c4.002,0,7.799-2.371,9.427-6.299l4.156-10.034C260.055,94.079,257.584,88.113,252.38,85.958
			z"/>
	</g>
</g>
<g>
	<g>
		<path fill="#3db9e6"  d="M437.094,249.385c-0.173,0-0.348,0-0.521,0.002c-5.247-31.118-32.393-54.905-64.97-54.905
			c-11.564,0-22.63,2.934-32.482,8.554c-9.257-9.586-20.418-16.813-32.689-21.297c-25.848-44.012-73.252-71.257-124.364-71.257
			c-79.487,0-144.153,64.667-144.153,144.152c0,79.599,64.667,144.357,144.153,144.357l255.018,0.205c0.003,0,0.006,0,0.009,0
			c41.304,0,74.906-33.603,74.906-74.906C512,282.988,478.398,249.385,437.094,249.385z M58.313,254.635
			c0-68.239,55.516-123.754,123.754-123.754c37.486,0,72.657,17.069,95.95,45.604c-0.571-0.011-1.138-0.043-1.711-0.043
			c-43.244,0-79.35,31.312-86.262,72.958c-40.589,0.83-73.352,34.106-73.352,74.891c0,15.982,5.075,30.794,13.679,42.956
			C87.877,347.595,58.313,304.511,58.313,254.635z M437.102,378.798l-245.503-0.204c-30.056,0-54.508-24.361-54.508-54.304
			c0-30.056,24.453-54.508,54.508-54.508c2.063,0,4.146,0.125,6.368,0.385c2.806,0.327,5.619-0.524,7.773-2.349
			c2.154-1.825,3.456-4.461,3.593-7.28c1.758-35.719,31.176-63.697,66.974-63.697c20.841,0,40.143,9.45,52.961,25.925
			c1.664,2.14,4.11,3.528,6.801,3.86c2.696,0.33,5.401-0.421,7.536-2.091c8.069-6.316,17.75-9.655,27.998-9.655
			c25.062,0,45.467,20.389,45.487,45.452c0.002,2.971,1.3,5.793,3.554,7.729c2.253,1.935,5.238,2.794,8.178,2.346
			c2.722-0.414,5.505-0.623,8.272-0.623c30.056,0,54.508,24.453,54.508,54.508C491.602,354.344,467.152,378.795,437.102,378.798z"/>
	</g>
</g>
<g>
	<g>
		<path fill="#3db9e6"  d="M403.016,347.793H286.598c-5.632,0-10.199,4.566-10.199,10.199c0,5.633,4.567,10.199,10.199,10.199h116.419
			c5.632,0,10.199-4.566,10.199-10.199C413.216,352.359,408.648,347.793,403.016,347.793z"/>
	</g>
</g>
<g>
	<g>
		<path fill="#3db9e6"  d="M441.51,347.793h-4.695c-5.632,0-10.199,4.566-10.199,10.199c0,5.633,4.567,10.199,10.199,10.199h4.695
			c5.632,0,10.199-4.566,10.199-10.199C451.709,352.359,447.142,347.793,441.51,347.793z"/>
	</g>
</g>
<g>
</g>
<g>
</g>
<g>
</g>
<g>
</g>
<g>
</g>
<g>
</g>
<g>
</g>
<g>
</g>
<g>
</g>
<g>
</g>
<g>
</g>
<g>
</g>
<g>
</g>
<g>
</g>
<g>
</g>
</svg>
