<?xml version="1.0" encoding="iso-8859-1"?>
<!-- Generator: Adobe Illustrator 19.0.0, SVG Export Plug-In . SVG Version: 6.00 Build 0)  -->
<svg xmlns="http://www.w3.org/2000/svg" xmlns:xlink="http://www.w3.org/1999/xlink" version="1.1" id="Capa_1" x="0px" y="0px" viewBox="0 0 512.001 512.001" style="enable-background:new 0 0 512.001 512.001;" xml:space="preserve" width="512px" height="512px">
<g>
	<g>
		<path d="M77.57,320.629c-1.86-1.86-4.44-2.93-7.07-2.93s-5.21,1.07-7.07,2.93s-2.93,4.44-2.93,7.07c0,2.64,1.07,5.21,2.93,7.07    c1.86,1.87,4.44,2.93,7.07,2.93s5.21-1.06,7.07-2.93c1.86-1.86,2.93-4.44,2.93-7.07S79.43,322.489,77.57,320.629z" fill="#FFFFFF"/>
	</g>
</g>
<g>
	<g>
		<path d="M508.247,338.992l-75-60c-3.002-2.403-7.115-2.87-10.579-1.205c-3.464,1.665-5.668,5.169-5.668,9.013v26.016h-71.497    l-56.746-56.839l56.743-56.775H417v26c0,3.844,2.204,7.348,5.668,9.013c1.378,0.662,2.858,0.987,4.331,0.987    c2.229,0,4.44-0.745,6.249-2.191l75-60c2.372-1.897,3.753-4.771,3.753-7.809s-1.381-5.911-3.753-7.809l-75-60    c-3.002-2.402-7.115-2.871-10.579-1.205c-3.464,1.666-5.668,5.169-5.668,9.013v26h-95.527c-2.653,0-5.198,1.054-7.073,2.931    l-73.766,73.808l-78.592-78.692c-1.876-1.878-4.421-2.934-7.076-2.934h-88.47c-4.281-13.882-17.229-24-32.497-24    c-18.748,0-34,15.252-34,34s15.252,34,34,34c15.269,0,28.217-10.118,32.497-24h84.323l75.675,75.771l-19.794,19.805    l-64.541-64.639c-1.876-1.879-4.422-2.935-7.077-2.935H110c-5.523,0-10,4.477-10,10s4.477,10,10,10h20.937l61.626,61.723    l-61.628,61.663H110c-5.523,0-10,4.477-10,10s4.477,10,10,10h25.079c2.653,0,5.198-1.054,7.073-2.931l183.464-183.569H417v28    h-75.644c-2.653,0-5.198,1.054-7.073,2.931L150.818,365.702H66.501C62.224,351.814,49.273,341.69,34,341.69    c-18.748,0-34,15.252-34,34s15.252,34,34,34c15.264,0,28.209-10.112,32.494-23.987h88.468c2.653,0,5.198-1.054,7.073-2.931    l78.653-78.698l73.709,73.809c1.875,1.878,4.421,2.934,7.076,2.934H417v25.984c0,3.844,2.204,7.348,5.668,9.013    c1.378,0.662,2.858,0.987,4.331,0.987c2.229,0,4.44-0.745,6.249-2.191l75-60c2.372-1.897,3.753-4.771,3.753-7.809    C512.001,343.763,510.619,340.889,508.247,338.992z M437,126.008l48.992,39.193L437,204.396V126.008z M34,150.317    c-7.72,0-14-6.28-14-14c0-7.72,6.28-14,14-14c7.72,0,14,6.28,14,14C48,144.037,41.72,150.317,34,150.317z M47.947,376.732    C47.411,383.965,41.368,389.69,34,389.69c-7.72,0-14-6.28-14-14c0-7.72,6.28-14,14-14c7.374,0,13.421,5.735,13.948,12.977    c-0.035,0.341-0.054,0.686-0.054,1.036C47.894,376.051,47.912,376.394,47.947,376.732z M417,360.818h-91.381v-0.001    l-70.793-70.889l19.793-19.804l59.66,59.759c1.875,1.879,4.422,2.935,7.077,2.935H417V360.818z M437,385.994v-78.388    l48.992,39.194L437,385.994z" fill="#FFFFFF"/>
	</g>
</g>
<g>
	<g>
		<path d="M77.57,177.249c-1.86-1.86-4.44-2.93-7.07-2.93s-5.21,1.07-7.07,2.93s-2.93,4.43-2.93,7.07c0,2.63,1.07,5.21,2.93,7.07    s4.44,2.93,7.07,2.93s5.21-1.07,7.07-2.93s2.93-4.44,2.93-7.07S79.43,179.109,77.57,177.249z" fill="#FFFFFF"/>
	</g>
</g>
<g>
</g>
<g>
</g>
<g>
</g>
<g>
</g>
<g>
</g>
<g>
</g>
<g>
</g>
<g>
</g>
<g>
</g>
<g>
</g>
<g>
</g>
<g>
</g>
<g>
</g>
<g>
</g>
<g>
</g>
</svg>
