<?xml version="1.0" standalone="no"?>
<!DOCTYPE svg PUBLIC "-//W3C//DTD SVG 20010904//EN"
 "http://www.w3.org/TR/2001/REC-SVG-20010904/DTD/svg10.dtd">
<svg version="1.0" xmlns="http://www.w3.org/2000/svg"
 width="580.000000pt" height="580.000000pt" viewBox="0 0 580.000000 580.000000"
 preserveAspectRatio="xMidYMid meet">
<metadata>
Created by potrace 1.11, written by Peter Selinger 2001-2013
</metadata>
<g transform="translate(0.000000,580.000000) scale(0.100000,-0.100000)"
fill="#000000" stroke="none">
<path d="M420 5784 c-200 -53 -359 -215 -407 -414 -10 -44 -13 -522 -13 -2480
l1 -2425 27 -80 c15 -45 42 -104 60 -133 47 -71 140 -155 214 -191 135 -66
-62 -61 2618 -58 1339 1 2444 5 2455 9 11 3 44 15 73 26 164 63 296 214 337
388 12 50 14 421 12 2494 -1 1339 -5 2444 -9 2455 -65 204 -177 326 -364 397
l-59 23 -2445 2 c-2111 1 -2453 0 -2500 -13z"/>
</g>
</svg>
